<svg width="186" height="40" viewBox="0 0 186 40" fill="none" xmlns="http://www.w3.org/2000/svg">
<path d="M18.73 0L22.879 13.8197H36.3055L25.4433 22.3607L29.5923 36.1803L18.73 27.6393L7.86773 36.1803L12.0167 22.3607L1.15448 13.8197H14.581L18.73 0Z" fill="#FFE81A"/>
<path d="M55.69 0L59.839 13.8197H73.2655L62.4032 22.3607L66.5522 36.1803L55.69 27.6393L44.8277 36.1803L48.9767 22.3607L38.1144 13.8197H51.5409L55.69 0Z" fill="#FFE81A"/>
<path d="M92.6499 0L96.7989 13.8197H110.225L99.3632 22.3607L103.512 36.1803L92.6499 27.6393L81.7877 36.1803L85.9367 22.3607L75.0744 13.8197H88.5009L92.6499 0Z" fill="#FFE81A"/>
<path d="M129.61 0L133.759 13.8197H147.186L136.323 22.3607L140.472 36.1803L129.61 27.6393L118.748 36.1803L122.897 22.3607L112.035 13.8197H125.461L129.61 0Z" fill="#FFE81A"/>
<path d="M167.064 0L171.213 13.8197H184.64L173.777 22.3607L177.926 36.1803L167.064 27.6393L156.202 36.1803L160.351 22.3607L149.488 13.8197H162.915L167.064 0Z" fill="white"/>
<path d="M167.064 18.2609V0L162.915 13.8197H149.488L160.351 22.3607L156.202 36.1803L167.064 27.6393V18.2609Z" fill="#FFE819"/>
</svg>
