<svg width="13" height="33" viewBox="0 0 13 33" fill="none" xmlns="http://www.w3.org/2000/svg">
<path fill-rule="evenodd" clip-rule="evenodd" d="M2.86526 16.1436V31.6312C2.86526 31.8542 3.0225 32.0342 3.21721 32.0342H8.2414C8.43611 32.0342 8.59335 31.8542 8.59335 31.6312V15.8915H12.2358C12.4183 15.8915 12.5715 15.7301 12.587 15.5214L12.9373 10.7791C12.9544 10.5437 12.7923 10.3422 12.5862 10.3422H8.59335V6.97737C8.59335 6.18825 9.15223 5.54919 9.84065 5.54919H12.6481C12.8428 5.54919 13 5.36853 13 5.14553V0.403243C13 0.180991 12.8428 0.00024301 12.6481 0.00024301H7.90413C5.12115 0.00024301 2.86526 2.58259 2.86526 5.76967V10.3422H0.352747C0.158851 10.3422 0 10.5222 0 10.7451V15.4879C0 15.7098 0.158851 15.8915 0.352747 15.8915H2.86526V16.1436" fill="white"/>
</svg>
