<svg width="31" height="34" viewBox="0 0 31 34" fill="none" xmlns="http://www.w3.org/2000/svg">
<path d="M28.0754 23.1308C28.0754 26.9131 25.2044 29.9787 21.662 29.9787H9.338C5.79559 29.9787 2.92461 26.9131 2.92461 23.1308V9.97047C2.92461 6.18786 5.79559 3.12231 9.338 3.12231H21.662C25.2044 3.12231 28.0754 6.18786 28.0754 9.97047V23.1308ZM31 9.97047C31 4.46411 26.8199 -0.000245121 21.662 -0.000245121H9.338C4.18013 -0.000245121 0 4.46411 0 9.97047V23.1308C0 28.6372 4.18013 33.1016 9.338 33.1016H21.662C26.8199 33.1016 31 28.6372 31 23.1308V9.97047ZM15.5532 22.0016C12.8492 22.0016 10.6489 19.6521 10.6489 16.7648C10.6489 13.8776 12.8492 11.5281 15.5532 11.5281C18.2572 11.5281 20.4567 13.8776 20.4567 16.7648C20.4567 19.6521 18.2572 22.0016 15.5532 22.0016ZM15.5532 8.59041C11.3316 8.59041 7.89731 12.2572 7.89731 16.7648C7.89731 21.2729 11.3316 24.939 15.5532 24.939C19.7749 24.939 23.2082 21.2729 23.2082 16.7648C23.2082 12.2572 19.7749 8.59041 15.5532 8.59041ZM23.6556 6.09473C22.6493 6.09473 21.8325 6.96488 21.8325 8.03967C21.8325 9.11511 22.6493 9.98636 23.6556 9.98636C24.6619 9.98636 25.4778 9.11511 25.4778 8.03967C25.4778 6.96488 24.6619 6.09473 23.6556 6.09473Z" fill="white"/>
</svg>
