<svg width="28" height="26" viewBox="0 0 28 26" fill="none" xmlns="http://www.w3.org/2000/svg">
<path d="M27.895 3.27515C27.0054 3.72244 26.0261 3.9943 25.067 4.17336C25.5222 4.08746 26.1938 3.17071 26.4621 2.80094C26.8721 2.23467 27.2125 1.5909 27.4045 0.894666C27.4288 0.840816 27.4473 0.772803 27.3986 0.730972C27.3374 0.704699 27.2972 0.717836 27.2486 0.745879C26.1771 1.38313 25.0686 1.84598 23.8898 2.17393C23.7909 2.20085 23.7187 2.17393 23.6575 2.10583C23.5594 1.98285 23.468 1.8675 23.3641 1.77145C22.8686 1.30301 22.3362 0.935845 21.7358 0.663614C20.9485 0.306974 20.0883 0.155953 19.2406 0.216697C18.4148 0.277162 17.604 0.535137 16.872 0.960253C16.1376 1.38677 15.4827 1.97921 14.9612 2.69398C14.423 3.43344 14.0247 4.30724 13.821 5.2335C13.6239 6.12696 13.6398 7.01017 13.7597 7.91379C13.7782 8.06416 13.7665 8.08447 13.6449 8.06416C9.03012 7.30095 5.2043 5.46567 2.09955 1.53378C1.96456 1.36348 1.89164 1.36348 1.78096 1.54795C0.422688 3.81085 1.08169 7.44619 2.77954 9.23302C3.00508 9.47181 3.23816 9.71022 3.48885 9.92748C3.39746 9.94854 2.26724 9.81167 1.26111 9.23302C1.12612 9.13808 1.05822 9.19305 1.04649 9.36373C1.03475 9.6068 1.05319 9.8332 1.08253 10.0978C1.34413 12.3924 2.77367 14.5137 4.73143 15.342C4.96368 15.4501 5.22106 15.545 5.4726 15.5927C5.02655 15.7015 4.56626 15.779 3.2868 15.6681C3.12749 15.6339 3.06711 15.7231 3.12748 15.8919C4.08917 18.8041 6.16431 19.6706 7.71794 20.1633C7.92587 20.2044 8.13548 20.2044 8.34341 20.2583C8.33084 20.2791 8.31827 20.2791 8.30653 20.3001C7.79089 21.1725 6.00418 21.8236 5.17077 22.146C3.65822 22.7338 2.00985 22.9983 0.410103 22.8233C0.15354 22.7814 0.100716 22.7851 0.0302872 22.8233C-0.0393033 22.8717 0.0219135 22.9397 0.104081 23.0133C0.428557 23.252 0.759727 23.4623 1.09594 23.6665C2.11213 24.2655 3.17108 24.7405 4.27866 25.0815C9.9985 26.836 16.4419 25.5473 20.7364 20.8053C24.1086 17.0816 25.2908 11.9472 25.2908 6.8053C25.2908 6.60406 25.5046 6.49301 25.6329 6.38717C26.5099 5.65377 27.2075 4.77783 27.8623 3.79884C28.009 3.57906 27.9998 3.38322 27.9998 3.30319C27.9998 3.28829 27.9998 3.27515 27.9998 3.27515C27.9998 3.194 28.009 3.21841 27.895 3.27515" fill="white"/>
</svg>
