<svg width="30" height="32" viewBox="0 0 30 32" fill="none" xmlns="http://www.w3.org/2000/svg">
<path fill-rule="evenodd" clip-rule="evenodd" d="M14.7775 29.1716C12.6196 29.1716 10.4958 28.5577 8.63691 27.3975C8.43701 27.2745 8.21148 27.2097 7.98509 27.2097C7.87062 27.2097 7.75615 27.2261 7.64338 27.2589L3.6035 28.4429L5.0105 25.1326C5.20185 24.6819 5.15231 24.1574 4.88235 23.7562C3.37626 21.5284 2.58092 18.8969 2.58092 16.1474C2.58092 8.96566 8.05258 3.12401 14.7775 3.12401C21.5032 3.12401 26.974 8.96566 26.974 16.1474C26.974 23.3282 21.5032 29.1716 14.7775 29.1716V29.1716ZM14.7775 0.368163C6.62935 0.368163 0.000396467 7.44593 0.000396467 16.1474C0.000396467 19.2087 0.813587 22.1477 2.36052 24.6993L0.115467 29.9791C-0.0913545 30.4672 -0.0162609 31.0374 0.308024 31.4432C0.557644 31.755 0.917636 31.9268 1.2901 31.9268C1.40458 31.9268 1.51819 31.9111 1.63181 31.8772L7.81766 30.0657C9.9525 31.2854 12.347 31.9268 14.7775 31.9268C22.9256 31.9268 29.5557 24.8479 29.5557 16.1474C29.5557 7.44593 22.9256 0.368163 14.7775 0.368163" fill="white"/>
<path fill-rule="evenodd" clip-rule="evenodd" d="M20.459 18.5095C19.8405 18.1155 19.035 17.6732 18.3063 17.9925C17.7476 18.2359 17.3905 19.172 17.0282 19.649C16.8412 19.8942 16.619 19.9326 16.3337 19.8094C14.2339 18.9165 12.6253 17.4196 11.4669 15.3571C11.2712 15.0368 11.3063 14.7842 11.5421 14.487C11.8923 14.0473 12.3323 13.5473 12.4262 12.9544C12.5211 12.3615 12.2614 11.6681 12.0307 11.1401C11.7377 10.4648 11.4105 9.5028 10.7766 9.12151C10.1949 8.77014 9.42857 8.96617 8.91002 9.41688C8.01559 10.1958 7.58333 11.4145 7.59699 12.6235C7.60041 12.9662 7.64056 13.3094 7.71488 13.6404C7.89514 14.4367 8.24026 15.1818 8.62896 15.8887C8.92198 16.4225 9.23978 16.9396 9.5832 17.4377C10.7057 19.0679 12.1033 20.4825 13.7213 21.5407C14.5286 22.0699 15.4 22.5331 16.3012 22.8516C17.3127 23.2084 18.2131 23.5796 19.3049 23.358C20.4488 23.126 21.5747 22.371 22.0284 21.1951C22.1633 20.8466 22.2308 20.4579 22.1556 20.0905C22.0002 19.3305 21.0357 18.878 20.459 18.5095" fill="white"/>
</svg>
